<svg xmlns="http://www.w3.org/2000/svg" viewBox="0 0 95.27 47.17"><defs><style>.cls-1{fill:#ffffff}</style></defs><g id="Hilfslinien"><path class="cls-1" d="M44.03 16.8l-3.5 16.6h9.17l3.51-16.6h-9.18zm-21.6 28.46h-2.28l-.35 1.17h-1.55l2.25-6.3h1.59l2.25 6.3h-1.55zM20.53 44h1.52l-.76-2.49zm10.07-3.87h1.55v3.95a2.43 2.43 0 01-2.69 2.48 2.43 2.43 0 01-2.68-2.48v-3.95h1.55v4a1.14 1.14 0 102.27 0zm9.25 0v1.3h-1.7v5H36.6v-5h-1.7v-1.3zm5.45 6.43a2.67 2.67 0 01-2.89-2.87v-.81a2.89 2.89 0 015.78 0v.81a2.67 2.67 0 01-2.89 2.87zm0-5.27c-.9 0-1.34.6-1.34 1.5v1c0 .9.44 1.5 1.34 1.5s1.34-.6 1.34-1.5v-1c0-.9-.44-1.5-1.34-1.5zm10.63-1.16h1.43v6.3h-1.49V43.1l-1 1.93h-1.21l-1-1.93v3.33h-1.47v-6.3h1.42l1.66 3.43zm8.36 5.13H62l-.35 1.17h-1.54l2.25-6.3H64l2.25 6.3h-1.6zM62.39 44h1.52l-.75-2.49zm10.49-3.87v1.3h-1.7v5h-1.55v-5h-1.7v-1.3zm4.35 6.3h-1.55v-6.3h1.55zm5.91.13a2.67 2.67 0 01-2.89-2.87v-.81a2.89 2.89 0 015.78 0v.81a2.68 2.68 0 01-2.89 2.87zm0-5.27c-.9 0-1.35.6-1.35 1.5v1c0 .9.45 1.5 1.35 1.5s1.34-.6 1.34-1.5v-1c0-.9-.48-1.5-1.34-1.5zm9.75 5.14l-2.36-3.68v3.68H89v-6.3h1.47l2.37 3.68v-3.68h1.51v6.3z"/><path d="M61.48.62h-9.12a6.08 6.08 0 00-6 4.83l-1.79 8.19h11.89a2.53 2.53 0 00.77-.12 2.77 2.77 0 001.91-2.07z" fill="#e20613"/><path class="cls-1" d="M32.22 16.74l-1.77 8.35a2.18 2.18 0 01-2.13 1.72h-14l3.76-17.44a2.82 2.82 0 012.76-2.24h4.82L27 .65h-8.63C10.79.65 8.89 9 8.89 9l-8 37.6h9.33l2.83-13.17h19.89a5.19 5.19 0 005.31-4.54l2.57-12.11z"/><path class="cls-1" d="M42.94 6.54a5.08 5.08 0 00-5-5.92h-7.75L28 10.9a2.27 2.27 0 002.22 2.74h11.22c.56-2.53 1.5-7.1 1.5-7.1zM84.2.62H64.66l-1.37 6.51h15.27A1.55 1.55 0 0180.08 9l-1 4.65H60.32a3.9 3.9 0 00-1.67.38l-.13.05-.38.22-.14.1a4 4 0 00-1.62 2.44l-2.2 10.61a4.93 4.93 0 004.82 6h20.09a5.33 5.33 0 005.35-4.12c1.24-5.94 4.72-22.55 4.72-22.55A5.07 5.07 0 0084.2.62zm-7 22l-.63 3a1.56 1.56 0 01-1.57 1.2H63.54a1.58 1.58 0 01-1.54-1.9l.72-3.37a1.54 1.54 0 011.51-1.23h13.43z"/></g></svg>